# xmcd CD database file
#
# Track frame offsets:
#	150
#	19065
#	35267
#	55683
#	69106
#	87695
#	107189
#	122824
#	148098
#	161817
#	181312
#	202819
#
# Disc length: 2988 seconds
#
# Revision: 2
# Processed by: cddbd v1.5.2PL0 Copyright (c) Steve Scherf et al.
# Submitted via: CDex 1.51
#
DISCID=a20baa0c
DTITLE=Mark Knopfler And Emmylou Harris - All The Roadrunning
DYEAR=2006
DGENRE=Country
TTITLE0=BeachcombingTrack  1
TTITLE1=I Dug Up A Diamond
TTITLE2=This Is Us
TTITLE3=Red Staggerwing
TTITLE4=Rollin' On
TTITLE5=Love And Happiness
TTITLE6=Right Now
TTITLE7=Donkey Town
TTITLE8=Belle Star
TTITLE9=Beyond My Wildest Dreams
TTITLE10=All The Roadrunning
TTITLE11=If This Is Goodbye
EXTD=YEAR: 2006
EXTT0=
EXTT1=
EXTT2=
EXTT3=
EXTT4=
EXTT5=
EXTT6=
EXTT7=
EXTT8=
EXTT9=
EXTT10=
EXTT11=
PLAYORDER=
